# xmcd
#
# Track frame offsets:
#	150
#	15813
#	32491
#
# Disc length: 641 seconds
#
# Revision: 3
# Processed by: cddbd v1.5.2PL0 Copyright (c) Steve Scherf et al.
# Submitted via: audiograbber 1.83.01
#
DISCID=0f027f03
DTITLE=Jörg Bausch - Maxi CD 2008 - Grosses Kino (LC 18344)
DYEAR=2008
DGENRE=Deutsch
TTITLE0=Grosses Kino (Fox Version)
TTITLE1=Grosses Kino (Radio Version)
TTITLE2=Grosses Kino (Party Version)
EXTD=
EXTT0=
EXTT1=
EXTT2=
PLAYORDER=
